<mxfile host="app.diagrams.net" modified="2022-10-05T11:50:21.547Z" agent="5.0 (Windows NT 10.0; Win64; x64) AppleWebKit/537.36 (KHTML, like Gecko) Chrome/105.0.0.0 Safari/537.36" etag="fDs0ik6HqE60nUOFM4mS" version="20.4.0" type="github">
  <diagram id="C5RBs43oDa-KdzZeNtuy" name="Page-1">
    <mxGraphModel dx="761" dy="637" grid="1" gridSize="10" guides="1" tooltips="1" connect="1" arrows="0" fold="1" page="1" pageScale="1" pageWidth="1169" pageHeight="827" math="0" shadow="0">
      <root>
        <mxCell id="WIyWlLk6GJQsqaUBKTNV-0" />
        <mxCell id="WIyWlLk6GJQsqaUBKTNV-1" parent="WIyWlLk6GJQsqaUBKTNV-0" />
        <mxCell id="qlcRcvdFkwAI8geO2u5U-6" style="edgeStyle=orthogonalEdgeStyle;rounded=0;orthogonalLoop=1;jettySize=auto;html=1;exitX=0.5;exitY=1;exitDx=0;exitDy=0;entryX=0.5;entryY=0;entryDx=0;entryDy=0;" edge="1" parent="WIyWlLk6GJQsqaUBKTNV-1" source="qlcRcvdFkwAI8geO2u5U-0" target="qlcRcvdFkwAI8geO2u5U-4">
          <mxGeometry relative="1" as="geometry" />
        </mxCell>
        <mxCell id="qlcRcvdFkwAI8geO2u5U-0" value="a = read.nextDouble()" style="rounded=1;whiteSpace=wrap;html=1;" vertex="1" parent="WIyWlLk6GJQsqaUBKTNV-1">
          <mxGeometry x="385" width="120" height="60" as="geometry" />
        </mxCell>
        <mxCell id="qlcRcvdFkwAI8geO2u5U-5" style="edgeStyle=orthogonalEdgeStyle;rounded=0;orthogonalLoop=1;jettySize=auto;html=1;exitX=0.5;exitY=1;exitDx=0;exitDy=0;entryX=0.5;entryY=0;entryDx=0;entryDy=0;" edge="1" parent="WIyWlLk6GJQsqaUBKTNV-1" source="qlcRcvdFkwAI8geO2u5U-1" target="qlcRcvdFkwAI8geO2u5U-4">
          <mxGeometry relative="1" as="geometry" />
        </mxCell>
        <mxCell id="qlcRcvdFkwAI8geO2u5U-1" value="b = read.nextDouble()" style="rounded=1;whiteSpace=wrap;html=1;" vertex="1" parent="WIyWlLk6GJQsqaUBKTNV-1">
          <mxGeometry x="525" width="120" height="60" as="geometry" />
        </mxCell>
        <mxCell id="qlcRcvdFkwAI8geO2u5U-7" style="edgeStyle=orthogonalEdgeStyle;rounded=0;orthogonalLoop=1;jettySize=auto;html=1;exitX=0.5;exitY=1;exitDx=0;exitDy=0;entryX=0.5;entryY=0;entryDx=0;entryDy=0;" edge="1" parent="WIyWlLk6GJQsqaUBKTNV-1" source="qlcRcvdFkwAI8geO2u5U-2" target="qlcRcvdFkwAI8geO2u5U-4">
          <mxGeometry relative="1" as="geometry" />
        </mxCell>
        <mxCell id="qlcRcvdFkwAI8geO2u5U-2" value="c = read.nextDouble()" style="rounded=1;whiteSpace=wrap;html=1;" vertex="1" parent="WIyWlLk6GJQsqaUBKTNV-1">
          <mxGeometry x="665" width="120" height="60" as="geometry" />
        </mxCell>
        <mxCell id="qlcRcvdFkwAI8geO2u5U-9" style="edgeStyle=orthogonalEdgeStyle;rounded=0;orthogonalLoop=1;jettySize=auto;html=1;exitX=0.5;exitY=1;exitDx=0;exitDy=0;entryX=0.5;entryY=0;entryDx=0;entryDy=0;" edge="1" parent="WIyWlLk6GJQsqaUBKTNV-1" source="qlcRcvdFkwAI8geO2u5U-4" target="qlcRcvdFkwAI8geO2u5U-8">
          <mxGeometry relative="1" as="geometry" />
        </mxCell>
        <mxCell id="qlcRcvdFkwAI8geO2u5U-10" style="edgeStyle=orthogonalEdgeStyle;rounded=0;orthogonalLoop=1;jettySize=auto;html=1;exitX=0.5;exitY=1;exitDx=0;exitDy=0;" edge="1" parent="WIyWlLk6GJQsqaUBKTNV-1" source="qlcRcvdFkwAI8geO2u5U-4">
          <mxGeometry relative="1" as="geometry">
            <mxPoint x="860" y="220" as="targetPoint" />
          </mxGeometry>
        </mxCell>
        <mxCell id="qlcRcvdFkwAI8geO2u5U-4" value="if (a == 0)" style="rhombus;whiteSpace=wrap;html=1;" vertex="1" parent="WIyWlLk6GJQsqaUBKTNV-1">
          <mxGeometry x="545" y="100" width="80" height="80" as="geometry" />
        </mxCell>
        <mxCell id="qlcRcvdFkwAI8geO2u5U-37" style="edgeStyle=orthogonalEdgeStyle;rounded=0;orthogonalLoop=1;jettySize=auto;html=1;exitX=0.5;exitY=1;exitDx=0;exitDy=0;entryX=0;entryY=0.5;entryDx=0;entryDy=0;" edge="1" parent="WIyWlLk6GJQsqaUBKTNV-1" source="qlcRcvdFkwAI8geO2u5U-8" target="qlcRcvdFkwAI8geO2u5U-34">
          <mxGeometry relative="1" as="geometry" />
        </mxCell>
        <mxCell id="qlcRcvdFkwAI8geO2u5U-8" value="out (La ecuacion no tiene solución real)" style="rounded=1;whiteSpace=wrap;html=1;" vertex="1" parent="WIyWlLk6GJQsqaUBKTNV-1">
          <mxGeometry x="385" y="220" width="120" height="60" as="geometry" />
        </mxCell>
        <mxCell id="qlcRcvdFkwAI8geO2u5U-11" value="true" style="text;html=1;strokeColor=none;fillColor=none;align=center;verticalAlign=middle;whiteSpace=wrap;rounded=0;" vertex="1" parent="WIyWlLk6GJQsqaUBKTNV-1">
          <mxGeometry x="445" y="170" width="60" height="30" as="geometry" />
        </mxCell>
        <mxCell id="qlcRcvdFkwAI8geO2u5U-12" value="false" style="text;html=1;strokeColor=none;fillColor=none;align=center;verticalAlign=middle;whiteSpace=wrap;rounded=0;" vertex="1" parent="WIyWlLk6GJQsqaUBKTNV-1">
          <mxGeometry x="800" y="170" width="60" height="30" as="geometry" />
        </mxCell>
        <mxCell id="qlcRcvdFkwAI8geO2u5U-17" style="edgeStyle=orthogonalEdgeStyle;rounded=0;orthogonalLoop=1;jettySize=auto;html=1;exitX=0.5;exitY=1;exitDx=0;exitDy=0;entryX=0.5;entryY=0;entryDx=0;entryDy=0;" edge="1" parent="WIyWlLk6GJQsqaUBKTNV-1" source="qlcRcvdFkwAI8geO2u5U-13" target="qlcRcvdFkwAI8geO2u5U-16">
          <mxGeometry relative="1" as="geometry" />
        </mxCell>
        <mxCell id="qlcRcvdFkwAI8geO2u5U-24" style="edgeStyle=orthogonalEdgeStyle;rounded=0;orthogonalLoop=1;jettySize=auto;html=1;exitX=0.5;exitY=1;exitDx=0;exitDy=0;startArrow=none;" edge="1" parent="WIyWlLk6GJQsqaUBKTNV-1" source="qlcRcvdFkwAI8geO2u5U-27">
          <mxGeometry relative="1" as="geometry">
            <mxPoint x="1040" y="430" as="targetPoint" />
          </mxGeometry>
        </mxCell>
        <mxCell id="qlcRcvdFkwAI8geO2u5U-13" value="if (sqrt &amp;lt; 0)" style="rhombus;whiteSpace=wrap;html=1;" vertex="1" parent="WIyWlLk6GJQsqaUBKTNV-1">
          <mxGeometry x="820" y="310" width="80" height="80" as="geometry" />
        </mxCell>
        <mxCell id="qlcRcvdFkwAI8geO2u5U-15" style="edgeStyle=orthogonalEdgeStyle;rounded=0;orthogonalLoop=1;jettySize=auto;html=1;exitX=0.5;exitY=1;exitDx=0;exitDy=0;entryX=0.5;entryY=0;entryDx=0;entryDy=0;" edge="1" parent="WIyWlLk6GJQsqaUBKTNV-1" source="qlcRcvdFkwAI8geO2u5U-14" target="qlcRcvdFkwAI8geO2u5U-13">
          <mxGeometry relative="1" as="geometry" />
        </mxCell>
        <mxCell id="qlcRcvdFkwAI8geO2u5U-14" value="sqrt = b² - 4 x a x c" style="shape=process;whiteSpace=wrap;html=1;backgroundOutline=1;" vertex="1" parent="WIyWlLk6GJQsqaUBKTNV-1">
          <mxGeometry x="790" y="220" width="140" height="60" as="geometry" />
        </mxCell>
        <mxCell id="qlcRcvdFkwAI8geO2u5U-36" style="edgeStyle=orthogonalEdgeStyle;rounded=0;orthogonalLoop=1;jettySize=auto;html=1;exitX=0.5;exitY=1;exitDx=0;exitDy=0;entryX=0.5;entryY=0;entryDx=0;entryDy=0;" edge="1" parent="WIyWlLk6GJQsqaUBKTNV-1" source="qlcRcvdFkwAI8geO2u5U-16" target="qlcRcvdFkwAI8geO2u5U-34">
          <mxGeometry relative="1" as="geometry" />
        </mxCell>
        <mxCell id="qlcRcvdFkwAI8geO2u5U-16" value="out (La ecuacion no tiene solucion real)" style="rounded=1;whiteSpace=wrap;html=1;" vertex="1" parent="WIyWlLk6GJQsqaUBKTNV-1">
          <mxGeometry x="650" y="430" width="120" height="60" as="geometry" />
        </mxCell>
        <mxCell id="qlcRcvdFkwAI8geO2u5U-18" value="true" style="text;html=1;strokeColor=none;fillColor=none;align=center;verticalAlign=middle;whiteSpace=wrap;rounded=0;" vertex="1" parent="WIyWlLk6GJQsqaUBKTNV-1">
          <mxGeometry x="710" y="380" width="60" height="30" as="geometry" />
        </mxCell>
        <mxCell id="qlcRcvdFkwAI8geO2u5U-33" style="edgeStyle=orthogonalEdgeStyle;rounded=0;orthogonalLoop=1;jettySize=auto;html=1;exitX=0.5;exitY=1;exitDx=0;exitDy=0;entryX=0.5;entryY=0;entryDx=0;entryDy=0;" edge="1" parent="WIyWlLk6GJQsqaUBKTNV-1" source="qlcRcvdFkwAI8geO2u5U-19" target="qlcRcvdFkwAI8geO2u5U-31">
          <mxGeometry relative="1" as="geometry" />
        </mxCell>
        <mxCell id="qlcRcvdFkwAI8geO2u5U-19" value="x1 = -b +&amp;nbsp;√sqrt" style="shape=process;whiteSpace=wrap;html=1;backgroundOutline=1;" vertex="1" parent="WIyWlLk6GJQsqaUBKTNV-1">
          <mxGeometry x="900" y="470" width="120" height="60" as="geometry" />
        </mxCell>
        <mxCell id="qlcRcvdFkwAI8geO2u5U-22" style="edgeStyle=orthogonalEdgeStyle;rounded=0;orthogonalLoop=1;jettySize=auto;html=1;exitX=0.5;exitY=1;exitDx=0;exitDy=0;entryX=0.5;entryY=0;entryDx=0;entryDy=0;" edge="1" parent="WIyWlLk6GJQsqaUBKTNV-1" source="qlcRcvdFkwAI8geO2u5U-20" target="qlcRcvdFkwAI8geO2u5U-4">
          <mxGeometry relative="1" as="geometry" />
        </mxCell>
        <mxCell id="qlcRcvdFkwAI8geO2u5U-20" value="double sqrt = 0" style="rounded=1;whiteSpace=wrap;html=1;" vertex="1" parent="WIyWlLk6GJQsqaUBKTNV-1">
          <mxGeometry x="810" width="120" height="60" as="geometry" />
        </mxCell>
        <mxCell id="qlcRcvdFkwAI8geO2u5U-23" style="edgeStyle=orthogonalEdgeStyle;rounded=0;orthogonalLoop=1;jettySize=auto;html=1;exitX=0.5;exitY=1;exitDx=0;exitDy=0;entryX=0.5;entryY=0;entryDx=0;entryDy=0;" edge="1" parent="WIyWlLk6GJQsqaUBKTNV-1" source="qlcRcvdFkwAI8geO2u5U-21" target="qlcRcvdFkwAI8geO2u5U-4">
          <mxGeometry relative="1" as="geometry" />
        </mxCell>
        <mxCell id="qlcRcvdFkwAI8geO2u5U-21" value="double x1, x2 = 0" style="rounded=1;whiteSpace=wrap;html=1;" vertex="1" parent="WIyWlLk6GJQsqaUBKTNV-1">
          <mxGeometry x="960" width="120" height="60" as="geometry" />
        </mxCell>
        <mxCell id="qlcRcvdFkwAI8geO2u5U-32" style="edgeStyle=orthogonalEdgeStyle;rounded=0;orthogonalLoop=1;jettySize=auto;html=1;exitX=0.5;exitY=1;exitDx=0;exitDy=0;entryX=0.5;entryY=0;entryDx=0;entryDy=0;" edge="1" parent="WIyWlLk6GJQsqaUBKTNV-1" source="qlcRcvdFkwAI8geO2u5U-25" target="qlcRcvdFkwAI8geO2u5U-31">
          <mxGeometry relative="1" as="geometry" />
        </mxCell>
        <mxCell id="qlcRcvdFkwAI8geO2u5U-25" value="x2 = -b -&amp;nbsp;√sqrt" style="shape=process;whiteSpace=wrap;html=1;backgroundOutline=1;" vertex="1" parent="WIyWlLk6GJQsqaUBKTNV-1">
          <mxGeometry x="1060" y="470" width="120" height="60" as="geometry" />
        </mxCell>
        <mxCell id="qlcRcvdFkwAI8geO2u5U-26" value="" style="ellipse;whiteSpace=wrap;html=1;aspect=fixed;" vertex="1" parent="WIyWlLk6GJQsqaUBKTNV-1">
          <mxGeometry x="NaN" y="NaN" height="NaN" as="geometry" />
        </mxCell>
        <mxCell id="qlcRcvdFkwAI8geO2u5U-29" style="edgeStyle=orthogonalEdgeStyle;rounded=0;orthogonalLoop=1;jettySize=auto;html=1;exitX=0;exitY=0.5;exitDx=0;exitDy=0;entryX=0.5;entryY=0;entryDx=0;entryDy=0;" edge="1" parent="WIyWlLk6GJQsqaUBKTNV-1" source="qlcRcvdFkwAI8geO2u5U-27" target="qlcRcvdFkwAI8geO2u5U-19">
          <mxGeometry relative="1" as="geometry" />
        </mxCell>
        <mxCell id="qlcRcvdFkwAI8geO2u5U-30" style="edgeStyle=orthogonalEdgeStyle;rounded=0;orthogonalLoop=1;jettySize=auto;html=1;exitX=1;exitY=0.5;exitDx=0;exitDy=0;entryX=0.5;entryY=0;entryDx=0;entryDy=0;" edge="1" parent="WIyWlLk6GJQsqaUBKTNV-1" source="qlcRcvdFkwAI8geO2u5U-27" target="qlcRcvdFkwAI8geO2u5U-25">
          <mxGeometry relative="1" as="geometry" />
        </mxCell>
        <mxCell id="qlcRcvdFkwAI8geO2u5U-27" value="" style="ellipse;whiteSpace=wrap;html=1;aspect=fixed;" vertex="1" parent="WIyWlLk6GJQsqaUBKTNV-1">
          <mxGeometry x="1030" y="430" width="20" height="20" as="geometry" />
        </mxCell>
        <mxCell id="qlcRcvdFkwAI8geO2u5U-28" value="" style="edgeStyle=orthogonalEdgeStyle;rounded=0;orthogonalLoop=1;jettySize=auto;html=1;exitX=0.5;exitY=1;exitDx=0;exitDy=0;endArrow=none;" edge="1" parent="WIyWlLk6GJQsqaUBKTNV-1" source="qlcRcvdFkwAI8geO2u5U-13" target="qlcRcvdFkwAI8geO2u5U-27">
          <mxGeometry relative="1" as="geometry">
            <mxPoint x="860" y="390" as="sourcePoint" />
            <mxPoint x="1040" y="430" as="targetPoint" />
          </mxGeometry>
        </mxCell>
        <mxCell id="qlcRcvdFkwAI8geO2u5U-35" style="edgeStyle=orthogonalEdgeStyle;rounded=0;orthogonalLoop=1;jettySize=auto;html=1;exitX=0.5;exitY=1;exitDx=0;exitDy=0;entryX=1;entryY=0.5;entryDx=0;entryDy=0;" edge="1" parent="WIyWlLk6GJQsqaUBKTNV-1" source="qlcRcvdFkwAI8geO2u5U-31" target="qlcRcvdFkwAI8geO2u5U-34">
          <mxGeometry relative="1" as="geometry" />
        </mxCell>
        <mxCell id="qlcRcvdFkwAI8geO2u5U-31" value="out (La ecuacion tiene 2 soluciones: x1, x2)" style="rounded=1;whiteSpace=wrap;html=1;" vertex="1" parent="WIyWlLk6GJQsqaUBKTNV-1">
          <mxGeometry x="970" y="590" width="140" height="60" as="geometry" />
        </mxCell>
        <mxCell id="qlcRcvdFkwAI8geO2u5U-39" style="edgeStyle=orthogonalEdgeStyle;rounded=0;orthogonalLoop=1;jettySize=auto;html=1;exitX=0.5;exitY=1;exitDx=0;exitDy=0;" edge="1" parent="WIyWlLk6GJQsqaUBKTNV-1" source="qlcRcvdFkwAI8geO2u5U-34">
          <mxGeometry relative="1" as="geometry">
            <mxPoint x="710.4285714285716" y="790" as="targetPoint" />
          </mxGeometry>
        </mxCell>
        <mxCell id="qlcRcvdFkwAI8geO2u5U-34" value="" style="ellipse;whiteSpace=wrap;html=1;aspect=fixed;" vertex="1" parent="WIyWlLk6GJQsqaUBKTNV-1">
          <mxGeometry x="700" y="750" width="20" height="20" as="geometry" />
        </mxCell>
        <mxCell id="qlcRcvdFkwAI8geO2u5U-40" value="false" style="text;html=1;strokeColor=none;fillColor=none;align=center;verticalAlign=middle;whiteSpace=wrap;rounded=0;" vertex="1" parent="WIyWlLk6GJQsqaUBKTNV-1">
          <mxGeometry x="980" y="380" width="60" height="30" as="geometry" />
        </mxCell>
      </root>
    </mxGraphModel>
  </diagram>
</mxfile>
